<?xml version="1.0" standalone="no"?>
<!DOCTYPE svg PUBLIC "-//W3C//DTD SVG 20010904//EN"
 "http://www.w3.org/TR/2001/REC-SVG-20010904/DTD/svg10.dtd">
<svg version="1.0" xmlns="http://www.w3.org/2000/svg"
 width="1280.000000pt" height="1280.000000pt" viewBox="0 0 1280.000000 1280.000000"
 preserveAspectRatio="xMidYMid meet">
<metadata>
Created by potrace 1.15, written by Peter Selinger 2001-2017
</metadata>
<g transform="translate(0.000000,1280.000000) scale(0.100000,-0.100000)"
fill="#000000" stroke="none">
<path d="M6103 12538 l-110 -263 -28 -176 c-15 -100 -25 -202 -23 -237 3 -58
2 -61 -22 -65 -69 -13 -470 -60 -475 -56 -3 3 -9 30 -15 59 -6 29 -44 128 -84
219 -73 163 -78 170 -247 389 -95 123 -177 221 -184 218 -6 -2 -86 -23 -176
-46 -90 -23 -167 -45 -171 -49 -5 -4 -24 -126 -44 -271 l-36 -265 17 -185 c10
-105 26 -213 37 -248 11 -35 18 -65 16 -66 -2 -1 -28 -13 -58 -25 -30 -12
-131 -54 -223 -92 -92 -38 -171 -69 -175 -69 -4 0 -20 25 -35 55 -15 30 -79
118 -144 196 -113 137 -124 147 -334 305 -120 90 -221 164 -225 164 -7 0 -324
-180 -324 -184 0 -2 16 -127 35 -279 l35 -276 65 -172 c38 -99 80 -193 100
-221 l35 -48 -203 -155 -202 -155 -50 55 c-80 86 -311 243 -435 294 -58 24
-173 71 -256 105 l-150 63 -138 -131 -137 -131 108 -261 c103 -247 113 -267
206 -400 55 -76 123 -161 153 -189 l55 -50 -142 -185 c-78 -102 -147 -191
-154 -199 -12 -12 -22 -9 -66 20 -29 19 -128 62 -219 97 l-165 63 -270 34
c-148 19 -275 35 -282 35 -17 0 -196 -317 -187 -332 4 -7 80 -107 167 -223
154 -204 164 -214 303 -327 79 -65 168 -130 198 -145 l54 -28 -94 -230 c-52
-126 -97 -231 -99 -233 -2 -2 -32 5 -67 16 -39 13 -131 27 -243 38 l-180 16
-270 -37 c-148 -20 -272 -38 -274 -40 -10 -10 -99 -361 -93 -366 4 -4 101 -80
217 -170 205 -159 214 -165 380 -240 94 -42 197 -82 229 -88 33 -6 60 -12 61
-13 1 -2 -13 -113 -31 -248 -18 -135 -34 -247 -34 -250 0 -3 -30 -4 -68 -2
-44 2 -128 -7 -243 -26 -174 -30 -179 -31 -420 -132 -134 -56 -250 -104 -256
-107 -10 -4 -13 -52 -13 -193 0 -141 3 -189 13 -193 6 -3 122 -51 256 -107
241 -101 246 -102 420 -132 115 -19 199 -28 244 -26 37 2 67 1 67 -2 0 -3 16
-115 34 -250 18 -135 32 -246 31 -248 -1 -1 -28 -7 -59 -13 -32 -6 -133 -44
-225 -86 -164 -74 -174 -80 -385 -243 -119 -92 -218 -169 -221 -171 -4 -5 89
-356 96 -364 2 -2 126 -20 274 -40 l270 -37 180 16 c112 11 204 25 243 38 35
11 65 18 67 16 3 -2 47 -108 99 -235 l94 -231 -51 -23 c-27 -13 -116 -78 -198
-144 -143 -117 -151 -125 -306 -330 -88 -115 -163 -216 -167 -223 -9 -15 170
-332 187 -332 7 0 134 16 282 35 l270 34 165 63 c91 35 190 78 219 97 44 29
54 32 66 20 7 -8 76 -97 154 -199 l142 -185 -55 -50 c-30 -27 -98 -113 -153
-189 -93 -133 -103 -153 -206 -400 l-108 -261 138 -131 c76 -73 140 -131 143
-129 3 2 117 49 254 105 246 100 252 103 401 210 84 60 170 130 191 155 l39
45 202 -155 203 -155 -35 -48 c-20 -28 -62 -122 -100 -221 l-65 -172 -35 -276
c-19 -152 -32 -279 -29 -282 3 -3 76 -47 162 -97 l156 -92 220 167 c210 159
224 172 338 308 65 78 130 167 145 198 15 30 31 55 35 55 13 0 442 -180 452
-190 4 -4 -1 -34 -12 -67 -12 -36 -26 -126 -37 -243 l-17 -185 36 -265 c20
-145 39 -267 44 -271 4 -4 85 -28 181 -53 141 -38 177 -44 187 -34 7 7 86 109
176 225 159 207 165 217 236 377 39 90 77 187 82 216 6 30 12 56 15 59 5 4
406 -43 475 -56 24 -4 25 -7 22 -65 -2 -35 8 -137 23 -237 l28 -176 110 -263
111 -262 189 2 190 3 104 250 105 250 29 180 c19 110 29 206 27 247 -3 64 -2
67 22 71 69 13 470 60 475 56 3 -3 9 -30 15 -60 6 -29 45 -128 87 -219 72
-156 85 -176 241 -380 91 -118 168 -219 172 -223 7 -8 348 78 362 92 5 4 24
128 44 276 l37 270 -17 188 c-12 133 -22 203 -37 239 -11 28 -16 54 -12 59 9
8 443 189 455 189 4 0 21 -26 37 -57 16 -32 81 -120 143 -195 84 -103 137
-156 208 -210 52 -41 151 -117 220 -170 l125 -95 160 91 c132 76 160 96 163
116 1 14 -13 140 -32 281 l-35 257 -66 173 c-38 98 -80 193 -100 221 l-35 48
203 155 202 156 45 -50 c25 -27 110 -96 190 -154 143 -104 149 -107 395 -207
138 -56 252 -103 255 -105 3 -2 67 56 143 129 l138 131 -108 261 c-103 247
-113 267 -206 400 -55 76 -123 162 -153 189 l-55 50 152 198 c83 108 155 197
161 197 5 0 29 -14 54 -31 24 -16 120 -59 212 -95 l167 -65 270 -34 c149 -19
275 -35 282 -35 9 0 187 290 196 319 1 4 -74 106 -166 227 -164 212 -173 223
-315 339 -81 66 -170 131 -198 145 l-51 25 94 225 c52 124 98 228 102 233 4 4
32 -1 62 -11 32 -12 129 -26 239 -37 l185 -18 270 37 c148 21 271 39 274 41 7
8 100 359 96 364 -3 2 -102 79 -221 171 -211 163 -221 169 -385 243 -92 42
-193 80 -225 86 -31 6 -58 12 -59 13 -1 2 13 113 31 248 18 135 34 247 34 250
0 3 30 4 68 2 44 -2 128 7 243 26 174 30 179 31 420 132 134 56 250 104 257
107 9 4 12 52 12 193 0 141 -3 189 -12 193 -7 3 -123 51 -257 107 -241 101
-246 102 -420 132 -115 19 -199 28 -243 26 -38 -2 -68 -1 -68 2 0 3 -16 115
-34 250 -18 135 -32 246 -31 248 1 1 28 7 61 13 32 6 135 46 229 88 166 75
175 81 380 240 116 90 213 166 217 170 6 5 -83 356 -93 366 -3 2 -126 20 -274
41 l-270 37 -185 -18 c-110 -11 -207 -25 -239 -37 -30 -10 -58 -15 -62 -11 -4
5 -50 109 -103 233 l-94 225 51 25 c29 14 118 79 199 145 142 116 151 127 315
339 92 121 167 223 166 227 -9 29 -187 319 -196 319 -7 0 -133 -16 -282 -35
l-270 -34 -167 -65 c-92 -36 -188 -79 -212 -95 -25 -17 -49 -31 -54 -31 -6 0
-78 89 -161 198 l-152 197 55 50 c30 28 98 113 153 189 93 133 103 153 206
400 l108 261 -137 131 -138 131 -150 -63 c-83 -34 -198 -81 -256 -105 -80 -33
-140 -68 -250 -147 -80 -58 -165 -126 -190 -153 l-45 -50 -202 156 -203 155
35 48 c20 28 63 123 100 222 l66 173 36 267 c20 147 33 274 30 282 -5 14 -304
188 -321 188 -4 0 -105 -74 -224 -165 -206 -158 -223 -172 -330 -303 -62 -75
-127 -163 -143 -195 -22 -43 -35 -58 -47 -54 -18 4 -444 178 -451 183 -2 2 6
29 17 59 16 40 26 108 38 243 l17 187 -37 270 c-20 148 -39 272 -44 276 -7 7
-355 100 -358 96 0 -1 -77 -101 -171 -222 -163 -211 -173 -227 -246 -385 -42
-91 -81 -190 -87 -219 -6 -30 -12 -57 -15 -60 -5 -4 -406 43 -475 56 -24 4
-25 7 -22 71 2 41 -8 137 -27 247 l-29 180 -105 250 -104 250 -190 3 -189 2
-111 -262z m565 -25 c99 -244 102 -251 127 -413 18 -109 26 -194 24 -250 l-3
-84 284 -37 c157 -20 286 -36 288 -34 1 1 9 35 16 76 9 52 37 123 90 237 71
153 85 174 233 365 86 111 158 204 160 207 2 2 74 -14 161 -36 l157 -41 34
-263 35 -263 -17 -183 c-13 -148 -22 -195 -43 -249 -15 -36 -25 -67 -23 -69 5
-5 500 -207 522 -213 13 -4 24 9 48 62 20 45 69 113 148 208 111 134 129 151
323 299 l206 158 139 -79 c76 -43 139 -85 141 -94 2 -8 -13 -129 -32 -268 -35
-250 -36 -256 -96 -414 -37 -97 -78 -187 -105 -227 l-45 -67 218 -167 c119
-92 223 -171 230 -177 11 -8 25 2 64 46 27 31 115 104 195 162 141 103 151
108 390 207 l244 101 116 -115 116 -116 -100 -244 c-97 -236 -104 -248 -205
-391 -69 -95 -125 -162 -162 -192 -31 -25 -56 -49 -56 -52 0 -7 59 -85 252
-335 l99 -128 67 45 c38 25 135 71 222 105 l155 61 265 35 c146 18 268 34 271
34 3 0 43 -63 88 -140 l82 -141 -162 -210 c-152 -197 -170 -217 -301 -325 -90
-75 -162 -126 -204 -145 -35 -16 -64 -35 -64 -41 0 -10 208 -515 217 -527 1
-2 35 8 75 22 56 20 115 30 253 43 l180 18 245 -33 c135 -18 251 -36 259 -40
12 -6 89 -263 91 -302 0 -8 -91 -86 -207 -175 -204 -157 -212 -162 -378 -237
-114 -50 -189 -78 -226 -82 -31 -4 -61 -10 -67 -14 -9 -5 -2 -83 26 -292 l38
-284 30 2 c114 5 167 2 309 -22 154 -26 169 -30 407 -128 l247 -102 0 -165 0
-165 -247 -102 c-241 -99 -251 -102 -411 -128 -115 -19 -189 -26 -249 -24
l-87 4 -38 -284 c-20 -156 -35 -286 -33 -289 3 -3 38 -11 78 -18 51 -9 122
-35 236 -88 151 -70 176 -86 354 -223 106 -82 199 -153 207 -159 13 -10 10
-30 -24 -160 -21 -82 -43 -154 -49 -160 -6 -6 -125 -26 -265 -44 l-254 -33
-176 17 c-132 13 -194 23 -249 43 -40 14 -74 24 -76 22 -1 -2 -52 -123 -113
-269 l-111 -265 72 -35 c46 -22 122 -76 208 -147 126 -105 147 -127 297 -323
l162 -210 -81 -137 c-45 -76 -83 -139 -84 -141 -2 -1 -124 13 -272 32 l-269
35 -160 63 c-90 36 -188 83 -224 107 -59 41 -63 42 -76 24 -7 -10 -85 -112
-174 -228 -88 -115 -161 -213 -161 -217 0 -3 26 -28 58 -54 37 -31 95 -101
160 -192 99 -138 107 -153 204 -389 l101 -245 -116 -116 -116 -116 -245 101
c-243 100 -248 103 -391 208 -80 59 -167 132 -194 163 l-49 56 -104 -79 c-311
-238 -358 -277 -351 -288 4 -7 22 -33 41 -60 19 -26 63 -123 99 -215 l64 -167
36 -263 c20 -148 32 -267 27 -272 -5 -5 -69 -43 -142 -85 -89 -51 -137 -73
-145 -67 -7 5 -101 77 -209 161 -183 141 -206 163 -309 287 -67 82 -125 163
-145 206 -27 53 -39 69 -52 66 -18 -5 -514 -209 -521 -214 -2 -2 9 -36 23 -76
22 -59 31 -109 43 -253 l16 -180 -34 -259 -34 -259 -155 -42 c-115 -32 -158
-40 -166 -31 -6 6 -79 100 -163 209 -142 185 -157 209 -227 360 -50 108 -80
187 -89 236 -8 41 -16 75 -17 77 -2 1 -131 -14 -288 -34 l-285 -37 3 -81 c3
-53 -5 -137 -23 -250 -26 -168 -27 -171 -128 -417 l-101 -247 -165 2 -164 3
-102 241 -102 240 -27 175 c-19 117 -27 200 -24 254 l3 80 -285 37 c-157 20
-286 35 -288 34 -1 -2 -9 -35 -16 -74 -8 -44 -42 -136 -86 -236 -69 -154 -80
-173 -207 -337 -74 -96 -147 -190 -163 -210 l-29 -36 -158 42 -158 42 -34 262
-35 262 18 172 c12 117 26 197 43 250 14 43 23 80 22 81 -9 7 -518 216 -526
216 -5 0 -25 -33 -45 -72 -21 -43 -82 -128 -145 -205 -113 -137 -103 -128
-494 -426 l-36 -27 -142 81 c-140 81 -141 82 -136 113 3 17 18 137 35 266 l30
235 64 167 c42 107 80 189 107 228 42 58 42 61 24 74 -11 8 -114 86 -230 175
-115 88 -213 161 -216 161 -4 0 -27 -25 -53 -56 -29 -36 -99 -94 -193 -162
-144 -102 -155 -108 -392 -205 l-244 -99 -114 114 -115 115 98 239 c93 229
102 245 202 387 70 99 125 165 167 201 l63 53 -165 214 c-91 118 -171 222
-178 233 -13 18 -17 17 -77 -26 -42 -29 -118 -65 -228 -107 l-165 -63 -265
-33 c-146 -19 -265 -33 -266 -32 -13 18 -154 271 -154 276 0 4 70 100 155 212
146 193 163 210 293 317 87 72 164 127 210 149 40 20 71 41 68 47 -2 6 -50
124 -106 261 -56 138 -106 254 -110 259 -5 4 -44 -3 -87 -17 -55 -18 -129 -30
-253 -41 l-175 -17 -254 35 c-139 20 -255 37 -257 38 -1 2 -22 72 -45 157 -26
96 -38 155 -32 159 6 4 100 76 209 160 188 145 208 157 361 227 117 53 184 77
238 86 66 11 75 15 75 34 0 12 -16 139 -35 281 -19 142 -35 265 -35 272 0 11
-17 12 -82 7 -68 -5 -115 -1 -259 24 -174 30 -180 32 -418 132 l-241 102 0
157 0 158 108 45 c396 167 364 156 551 188 144 25 191 29 258 24 66 -5 83 -4
83 7 0 7 16 130 35 273 19 143 35 269 35 281 0 18 -9 22 -73 32 -53 8 -119 32
-240 86 -162 73 -173 80 -370 232 -111 86 -204 158 -206 160 -4 3 76 304 83
311 2 2 118 20 258 39 l253 35 175 -16 c123 -12 198 -24 253 -42 43 -14 82
-21 87 -17 5 7 143 336 216 519 3 6 -28 27 -68 47 -43 21 -130 84 -211 150
-130 107 -146 124 -292 317 -85 112 -155 207 -155 211 0 6 143 263 154 277 1
2 121 -13 267 -31 l264 -34 165 -63 c113 -42 185 -76 228 -107 35 -24 64 -43
66 -41 1 2 78 103 170 223 92 121 170 225 172 231 3 7 -22 35 -54 63 -35 31
-101 110 -161 193 -98 136 -105 150 -202 386 l-101 246 115 115 115 115 239
-98 c227 -94 245 -103 390 -205 102 -72 167 -125 199 -163 25 -31 49 -57 53
-57 6 0 427 322 448 343 10 10 4 24 -28 70 -26 37 -65 120 -106 225 l-64 167
-34 265 c-18 146 -32 267 -30 268 2 2 65 39 140 83 l137 78 211 -159 c200
-152 217 -167 325 -298 75 -90 124 -160 144 -204 17 -38 35 -68 40 -68 9 0
520 209 527 216 2 2 -8 36 -22 76 -19 55 -30 118 -43 253 l-17 180 34 259 34
259 145 38 c80 21 152 38 161 39 10 0 81 -84 175 -205 152 -196 162 -212 233
-368 50 -110 78 -186 87 -236 7 -41 15 -75 16 -76 2 -2 131 14 288 34 l284 37
-3 83 c-2 55 6 138 25 254 27 169 29 175 116 382 49 116 96 225 103 243 l14
32 164 0 163 0 102 -247z"/>
<path d="M6295 10443 l-60 -4 7 -122 c18 -281 83 -482 168 -517 28 -12 36 -11
64 4 85 46 149 248 163 519 l6 117 -79 0 c-43 0 -108 2 -144 4 -36 2 -92 1
-125 -1z m230 -40 l78 -6 -6 -101 c-15 -229 -76 -428 -142 -458 -21 -9 -29 -8
-46 8 -59 51 -114 253 -126 454 l-6 110 85 0 c47 0 120 -3 163 -7z"/>
<path d="M5670 10380 c-689 -129 -1311 -422 -1860 -874 -120 -99 -375 -351
-483 -479 -338 -397 -602 -864 -763 -1344 -52 -156 -114 -392 -140 -532 -16
-92 -16 -95 3 -110 10 -9 71 -62 135 -119 l116 -102 253 -96 254 -96 725 7
725 6 241 90 240 89 127 0 126 0 43 82 c121 234 348 441 575 525 l73 28 0 114
0 114 90 241 90 242 0 736 0 735 -89 239 -89 239 -123 143 c-139 160 -118 151
-269 122z m243 -152 l115 -132 86 -232 86 -233 0 -729 0 -728 -90 -243 -90
-242 0 -103 0 -104 -59 -22 c-124 -46 -299 -166 -402 -277 -61 -64 -136 -170
-176 -249 l-38 -74 -120 0 -120 0 -240 -90 -239 -90 -728 0 -729 0 -232 86
-232 87 -99 86 c-54 47 -111 97 -127 111 l-29 25 24 115 c95 459 260 882 500
1280 539 899 1433 1561 2448 1815 137 34 320 72 360 74 10 1 64 -54 131 -131z"/>
<path d="M6936 10252 l-119 -137 -87 -235 -87 -235 -7 -725 -7 -725 95 -257
96 -257 0 -124 0 -125 85 -45 c160 -86 311 -219 407 -359 43 -64 109 -193 127
-250 l13 -38 113 0 114 0 255 -95 254 -95 714 0 713 0 250 94 249 93 144 124
143 124 -6 45 c-11 82 -56 293 -86 408 -80 306 -208 626 -359 902 -519 948
-1394 1649 -2425 1945 -139 40 -428 106 -458 104 -7 0 -65 -62 -131 -137z
m245 78 c1184 -234 2208 -1000 2768 -2072 176 -335 302 -691 374 -1058 45
-223 57 -181 -96 -313 l-133 -116 -243 -90 -243 -91 -707 0 -706 0 -254 95
-254 95 -102 0 -102 0 -29 68 c-101 240 -293 449 -520 568 l-74 39 0 116 0
116 -95 256 -95 256 0 703 0 703 91 245 90 246 112 127 c61 70 112 127 113
127 1 0 48 -9 105 -20z"/>
<path d="M6386 7929 c-56 -44 -136 -279 -136 -399 l0 -32 88 7 c51 4 129 2
190 -5 57 -7 105 -11 106 -9 6 7 -14 133 -34 214 -49 196 -135 286 -214 224z
m91 -41 c45 -50 90 -178 108 -306 l7 -53 -29 8 c-15 4 -83 7 -151 8 l-123 0 6
40 c27 174 94 325 145 325 9 0 26 -10 37 -22z"/>
<path d="M6293 6965 c-281 -51 -493 -326 -468 -605 14 -154 76 -282 182 -380
295 -270 753 -175 920 190 42 92 56 248 32 362 -29 137 -144 292 -272 367
-109 64 -264 90 -394 66z m261 -53 c71 -19 186 -92 243 -155 51 -55 106 -162
123 -238 16 -72 8 -229 -15 -293 -75 -213 -273 -356 -495 -359 -154 -1 -265
42 -378 147 -134 126 -194 311 -157 491 46 223 232 396 460 428 47 7 155 -3
219 -21z"/>
<path d="M2357 6553 c-9 -123 -9 -237 -1 -285 l6 -37 67 5 c302 22 495 73 556
146 53 62 21 123 -89 173 -110 50 -231 74 -447 90 l-86 6 -6 -98z m351 17
c149 -30 262 -85 262 -128 0 -25 -54 -68 -112 -90 -82 -31 -238 -61 -355 -68
l-100 -7 -8 48 c-4 27 -4 100 0 163 l8 115 101 -6 c55 -3 147 -15 204 -27z"/>
<path d="M5195 6624 c-274 -48 -400 -142 -323 -239 12 -16 54 -43 93 -61 69
-32 242 -74 303 -74 l30 0 -2 123 c0 67 3 155 8 195 9 83 19 79 -109 56z m63
-91 c-5 -32 -8 -100 -6 -150 2 -51 2 -93 0 -93 -2 0 -49 9 -103 20 -150 31
-259 85 -259 130 0 31 66 77 145 103 61 20 171 45 206 46 l26 1 -9 -57z"/>
<path d="M10250 6554 c-14 -2 -59 -9 -100 -15 -220 -31 -360 -101 -360 -180 0
-67 95 -123 277 -164 98 -22 347 -48 366 -38 4 2 7 94 7 204 l0 199 -82 -1
c-46 -1 -94 -3 -108 -5z m150 -196 l0 -161 -109 6 c-235 14 -461 90 -461 157
0 72 255 152 508 158 l62 2 0 -162z"/>
<path d="M7502 6443 c2 -60 -1 -147 -5 -196 l-9 -88 44 6 c202 28 364 91 402
157 21 37 21 37 2 73 -34 62 -140 110 -311 141 -136 24 -126 31 -123 -93z
m150 47 c110 -23 212 -64 243 -99 18 -20 18 -25 5 -49 -23 -41 -130 -90 -253
-115 -58 -12 -108 -19 -110 -17 -3 3 -1 43 4 90 5 47 6 113 2 148 -3 34 -2 62
2 62 4 0 52 -9 107 -20z"/>
<path d="M2928 6157 l-246 -92 -141 -123 c-108 -94 -141 -129 -141 -147 0 -35
55 -306 85 -421 195 -737 590 -1398 1146 -1921 535 -502 1177 -843 1895 -1003
72 -17 151 -31 175 -32 l44 -3 111 125 c61 69 116 134 122 145 6 12 49 124 96
249 l86 229 0 733 0 733 -90 243 -90 242 0 128 0 127 -82 43 c-236 123 -449
357 -529 583 l-23 65 -113 0 -113 0 -253 95 -254 95 -719 0 -719 -1 -247 -92z
m1930 -42 l255 -95 102 0 102 0 26 -67 c58 -147 172 -305 300 -415 79 -68 190
-143 255 -172 l42 -19 0 -122 0 -121 90 -239 90 -240 0 -726 0 -727 -87 -233
-87 -234 -94 -110 c-52 -60 -102 -118 -111 -128 -16 -17 -22 -16 -121 3 -1327
262 -2446 1196 -2944 2457 -90 229 -180 544 -216 753 -6 36 -13 77 -16 91 -5
24 9 39 126 142 l132 115 242 91 241 90 709 1 709 0 255 -95z"/>
<path d="M7920 6069 l-235 -89 -127 0 -128 0 -26 -52 c-129 -256 -342 -455
-591 -554 l-73 -29 0 -111 0 -111 -95 -254 -95 -254 0 -717 0 -717 92 -248 92
-248 124 -142 c71 -82 131 -143 141 -143 38 0 247 42 399 80 1429 359 2561
1493 2922 2930 21 85 44 184 50 220 6 36 14 74 16 86 4 16 -19 42 -113 125
-65 58 -131 115 -148 127 -16 11 -133 59 -260 107 l-229 85 -741 -1 -740 -1
-235 -89z m1942 -36 l233 -86 120 -105 c66 -58 123 -108 127 -111 15 -13 -65
-357 -129 -556 -423 -1320 -1511 -2336 -2853 -2664 -159 -39 -358 -77 -364
-70 -1 2 -47 56 -102 119 -55 63 -108 126 -116 140 -9 14 -55 129 -102 256
l-86 231 0 710 0 710 95 255 95 255 0 100 0 100 68 28 c156 65 300 169 413
300 67 77 137 180 171 250 l22 45 120 0 121 1 235 89 235 88 732 1 732 1 233
-87z"/>
<path d="M6165 5258 c20 -160 71 -312 124 -369 62 -64 121 -47 175 50 30 56
71 205 82 300 l7 61 -114 -3 c-63 -1 -151 2 -197 6 l-83 8 6 -53z m267 -5 l77
5 -6 -31 c-29 -168 -59 -259 -100 -307 -31 -37 -52 -38 -85 -2 -44 45 -90 178
-105 300 l-5 49 73 -10 c41 -5 109 -7 151 -4z"/>
<path d="M6305 2988 c-40 -31 -91 -148 -114 -264 -16 -78 -40 -288 -41 -350 0
-15 265 -29 351 -19 l62 7 -6 120 c-7 124 -36 290 -64 368 -51 140 -121 191
-188 138z m95 -48 c55 -59 103 -244 116 -442 l7 -108 -90 0 c-49 0 -124 3
-166 6 l-76 7 5 51 c27 285 62 422 127 494 27 30 43 28 77 -8z"/>
</g>
</svg>
